<?xml version="1.0" encoding="utf-8"?>
<!-- Generator: Adobe Illustrator 23.0.3, SVG Export Plug-In . SVG Version: 6.00 Build 0)  -->
<svg version="1.1" id="Layer_1" xmlns="http://www.w3.org/2000/svg" xmlns:xlink="http://www.w3.org/1999/xlink" x="0px" y="0px"
	 viewBox="0 0 2500 2500" style="enable-background:new 0 0 2500 2500;" xml:space="preserve">
<style type="text/css">
	.st0{display:none;}
	.st1{fill:url(#SVGID_1_);}
	.st2{fill:url(#SVGID_2_);}
	.st3{fill:url(#SVGID_3_);}
	.st4{fill:url(#SVGID_4_);}
	.st5{fill:url(#SVGID_5_);}
</style>
<rect class="st0" width="2500" height="2500"/>
<g>
	<linearGradient id="SVGID_1_" gradientUnits="userSpaceOnUse" x1="477.9709" y1="1247.2869" x2="2009.9336" y2="1255.6128">
		<stop  offset="0" style="stop-color:#C693EE"/>
		<stop  offset="0.5168" style="stop-color:#655BF7"/>
		<stop  offset="1" style="stop-color:#1BBBE4"/>
	</linearGradient>
	<path class="st1" d="M1349.68,1081.92h-204.53c-37.01,0-67.28,30.28-67.28,67.28v204.53c0,37.01,30.28,67.28,67.28,67.28h204.53
		c37.01,0,67.28-30.28,67.28-67.28V1149.2C1416.96,1112.2,1386.69,1081.92,1349.68,1081.92z"/>
	<linearGradient id="SVGID_2_" gradientUnits="userSpaceOnUse" x1="479.049" y1="1048.9238" x2="2011.0116" y2="1057.2498">
		<stop  offset="0" style="stop-color:#C693EE"/>
		<stop  offset="0.5168" style="stop-color:#655BF7"/>
		<stop  offset="1" style="stop-color:#1BBBE4"/>
	</linearGradient>
	<path class="st2" d="M659.37,1094.98c49.11-51.4,117.14-80.45,188.23-80.39c36.51,0.03,67.91,0.05,67.91,0.05
		c31.61,0,57.47-25.86,57.47-57.47V782.46c0-31.61-25.86-57.47-57.47-57.47H740.79c-31.61,0-57.47,25.86-57.47,57.47
		c0,0,0.14,40.6,0.41,84.12c0.42,67.46-25.41,132.44-72.02,181.22l0,0c-49.06,51.34-116.98,80.39-188,80.39h-34.59
		c-26.91,0-48.92,22.01-48.92,48.92v148.72c0,26.91,22.01,48.92,48.92,48.92h148.72c26.91,0,48.92-22.01,48.92-48.92
		c0,0-0.02-22.41-0.06-50.15c-0.09-67.04,25.71-131.54,72.02-180.01L659.37,1094.98z"/>
	<linearGradient id="SVGID_3_" gradientUnits="userSpaceOnUse" x1="474.7486" y1="1840.1909" x2="2006.7112" y2="1848.5167">
		<stop  offset="0" style="stop-color:#C693EE"/>
		<stop  offset="0.5168" style="stop-color:#655BF7"/>
		<stop  offset="1" style="stop-color:#1BBBE4"/>
	</linearGradient>
	<path class="st3" d="M1094.98,1840.63c-51.4-49.11-80.45-117.14-80.39-188.23c0.03-36.51,0.05-67.91,0.05-67.91
		c0-31.61-25.86-57.47-57.47-57.47H782.46c-31.61,0-57.47,25.86-57.47,57.47v174.72c0,31.61,25.86,57.47,57.47,57.47
		c0,0,40.6-0.14,84.12-0.41c67.46-0.42,132.44,25.41,181.22,72.02l0,0c51.34,49.06,80.39,116.98,80.39,188v34.59
		c0,26.91,22.01,48.92,48.92,48.92h148.72c26.91,0,48.92-22.01,48.92-48.92v-148.72c0-26.91-22.01-48.92-48.92-48.92
		c0,0-22.41,0.02-50.15,0.06c-67.04,0.09-131.54-25.71-180.01-72.02L1094.98,1840.63z"/>
	<linearGradient id="SVGID_4_" gradientUnits="userSpaceOnUse" x1="476.909" y1="1442.6846" x2="2008.8716" y2="1451.0105">
		<stop  offset="0" style="stop-color:#C693EE"/>
		<stop  offset="0.5168" style="stop-color:#655BF7"/>
		<stop  offset="1" style="stop-color:#1BBBE4"/>
	</linearGradient>
	<path class="st4" d="M1840.63,1405.02c-49.11,51.4-117.14,80.45-188.23,80.39c-36.51-0.03-67.91-0.05-67.91-0.05
		c-31.61,0-57.47,25.86-57.47,57.47v174.72c0,31.61,25.86,57.47,57.47,57.47h174.72c31.61,0,57.47-25.86,57.47-57.47
		c0,0-0.14-40.6-0.41-84.12c-0.42-67.46,25.41-132.44,72.02-181.22l0,0c49.06-51.34,116.98-80.39,188-80.39h34.59
		c26.91,0,48.92-22.01,48.92-48.92v-148.72c0-26.91-22.01-48.92-48.92-48.92h-148.72c-26.91,0-48.92,22.01-48.92,48.92
		c0,0,0.02,22.41,0.06,50.15c0.09,67.04-25.71,131.54-72.02,180.01L1840.63,1405.02z"/>
	<linearGradient id="SVGID_5_" gradientUnits="userSpaceOnUse" x1="481.2093" y1="651.4175" x2="2013.172" y2="659.7435">
		<stop  offset="0" style="stop-color:#C693EE"/>
		<stop  offset="0.5168" style="stop-color:#655BF7"/>
		<stop  offset="1" style="stop-color:#1BBBE4"/>
	</linearGradient>
	<path class="st5" d="M1405.02,659.37c51.4,49.11,80.45,117.14,80.39,188.23c-0.03,36.51-0.05,67.91-0.05,67.91
		c0,31.61,25.86,57.47,57.47,57.47h174.72c31.61,0,57.47-25.86,57.47-57.47V740.79c0-31.61-25.86-57.47-57.47-57.47
		c0,0-40.6,0.14-84.12,0.41c-67.46,0.42-132.44-25.41-181.22-72.02l0,0c-51.34-49.06-80.39-116.98-80.39-188v-34.59
		c0-26.91-22.01-48.92-48.92-48.92h-148.72c-26.91,0-48.92,22.01-48.92,48.92v148.72c0,26.91,22.01,48.92,48.92,48.92
		c0,0,22.41-0.02,50.15-0.06c67.04-0.09,131.54,25.71,180.01,72.02L1405.02,659.37z"/>
</g>
</svg>
