<?xml version="1.0" encoding="utf-8"?>
<!-- Generator: Adobe Illustrator 23.0.2, SVG Export Plug-In . SVG Version: 6.00 Build 0)  -->
<svg version="1.1" id="Layer_1" xmlns="http://www.w3.org/2000/svg" xmlns:xlink="http://www.w3.org/1999/xlink" x="0px" y="0px"
	 viewBox="0 0 1000 1000" style="enable-background:new 0 0 1000 1000;" xml:space="preserve">
<style type="text/css">
	.st0{fill:url(#SVGID_1_);}
	.st1{fill:#33CDFD;}
	.st2{fill:url(#SVGID_2_);}
	.st3{fill:url(#SVGID_3_);}
	.st4{fill:url(#SVGID_4_);}
	.st5{fill:url(#SVGID_5_);}
	.st6{fill:url(#SVGID_6_);}
	.st7{fill:url(#SVGID_7_);}
	.st8{fill:url(#SVGID_8_);}
	.st9{fill:url(#SVGID_9_);}
	.st10{fill:#FB9E45;}
	.st11{fill:url(#SVGID_10_);}
	.st12{fill:url(#SVGID_11_);}
	.st13{fill:url(#SVGID_12_);}
	.st14{fill:url(#SVGID_13_);}
	.st15{fill:url(#SVGID_14_);}
	.st16{fill:#1CB9F1;}
	.st17{fill:#22A2F4;}
	.st18{fill:url(#SVGID_15_);}
	.st19{fill:url(#SVGID_16_);}
	.st20{fill:url(#SVGID_17_);}
	.st21{fill:url(#SVGID_18_);}
	.st22{fill:url(#SVGID_19_);}
	.st23{fill:url(#SVGID_20_);}
	.st24{fill:url(#SVGID_21_);}
	.st25{fill:url(#SVGID_22_);}
	.st26{fill:url(#SVGID_23_);}
	.st27{fill:url(#SVGID_24_);}
	.st28{fill:url(#SVGID_25_);}
	.st29{fill:url(#SVGID_26_);}
	.st30{fill:url(#SVGID_27_);}
	.st31{fill:url(#SVGID_28_);}
	.st32{fill:url(#SVGID_29_);}
	.st33{fill:url(#SVGID_30_);}
	.st34{fill:#FFFFFF;}
	.st35{fill:url(#SVGID_31_);}
	.st36{fill:url(#SVGID_32_);}
	.st37{fill:url(#SVGID_33_);}
	.st38{fill:url(#SVGID_34_);}
	.st39{fill:url(#SVGID_35_);}
	.st40{fill:url(#SVGID_36_);}
	.st41{fill:url(#SVGID_37_);}
	.st42{fill:url(#SVGID_38_);}
	.st43{fill:url(#SVGID_39_);}
	.st44{fill:url(#SVGID_40_);}
	.st45{fill:url(#SVGID_41_);}
	.st46{fill:url(#SVGID_42_);}
	.st47{fill:url(#SVGID_43_);}
	.st48{fill:url(#SVGID_44_);}
	.st49{fill:url(#SVGID_45_);}
	.st50{fill:url(#SVGID_46_);}
	.st51{fill:url(#SVGID_47_);}
	.st52{fill:url(#SVGID_48_);}
	.st53{fill:url(#SVGID_49_);}
	.st54{fill:url(#SVGID_50_);}
	.st55{fill:url(#SVGID_51_);}
	.st56{fill:url(#SVGID_52_);}
	.st57{fill:url(#SVGID_53_);}
	.st58{fill:url(#SVGID_54_);}
	.st59{fill:url(#SVGID_55_);}
	.st60{fill:url(#SVGID_56_);}
	.st61{fill:url(#SVGID_57_);}
	.st62{fill:url(#SVGID_58_);}
	.st63{fill:url(#SVGID_59_);}
	.st64{fill:url(#SVGID_60_);}
	.st65{fill:url(#SVGID_61_);}
	.st66{fill:url(#SVGID_62_);}
	.st67{fill:url(#SVGID_63_);}
	.st68{fill:url(#SVGID_64_);}
	.st69{fill:url(#SVGID_65_);}
	.st70{fill:url(#SVGID_66_);}
	.st71{fill:url(#SVGID_67_);}
	.st72{fill:url(#SVGID_68_);}
	.st73{fill:url(#SVGID_69_);}
	.st74{fill:url(#SVGID_70_);}
	.st75{fill:url(#SVGID_71_);}
	.st76{fill:url(#SVGID_72_);}
	.st77{fill:url(#SVGID_73_);}
	.st78{fill:url(#SVGID_74_);}
	.st79{fill:url(#SVGID_75_);}
	.st80{fill:url(#SVGID_76_);}
</style>
<linearGradient id="SVGID_1_" gradientUnits="userSpaceOnUse" x1="612.7238" y1="238.6462" x2="408.2212" y2="243.5065">
	<stop  offset="0" style="stop-color:#5DF1FC"/>
	<stop  offset="1" style="stop-color:#4FF5FF"/>
</linearGradient>
<path class="st0" d="M616.28,262.17l-2.34,1.35l-31.52,18.21l-2.81,1.63h-0.01l-9.26-5.36l-24.6-14.21l-12.07-6.97h-0.01
	l-33.47-19.32h-0.01l-33.48,19.33L454,264.15L430,278.01l-9.72,5.61l-2.97-1.72l-31.26-18.05l-2.46-1.41l2.46-1.42l7.26-4.19
	l23.99-13.85l12.69-7.32L454,221.79l9.5-5.48l29.34-16.94c4.55-2.63,10.15-2.62,14.7,0l29.32,16.94h0.01l8.87,5.11l24.6,14.21
	l12.08,6.97l24.6,14.21l6.92,4L616.28,262.17z"/>
<polygon class="st1" points="437.14,273.89 430,278.01 420.28,283.62 417.31,281.89 386.05,263.85 383.6,262.44 386.05,261.02 
	393.32,256.83 400.46,252.71 "/>
<linearGradient id="SVGID_2_" gradientUnits="userSpaceOnUse" x1="476.0007" y1="293.0237" x2="524.3388" y2="293.0237">
	<stop  offset="0" style="stop-color:#5DF1FC"/>
	<stop  offset="1" style="stop-color:#4FF5FF"/>
</linearGradient>
<path class="st2" d="M521.81,297.41l-19.11,11.03c-1.57,0.9-3.5,0.9-5.06,0l-19.11-11.03c-3.37-1.95-3.37-6.82,0-8.77l19.11-11.03
	c1.57-0.9,3.5-0.9,5.06,0l19.11,11.03C525.18,290.59,525.18,295.46,521.81,297.41z"/>
<linearGradient id="SVGID_3_" gradientUnits="userSpaceOnUse" x1="294.3426" y1="330.6252" x2="294.3426" y2="562.192">
	<stop  offset="0" style="stop-color:#27AFFA"/>
	<stop  offset="1" style="stop-color:#24A3FC"/>
</linearGradient>
<path class="st3" d="M312.69,348.97v189.65c-1.12,0.81-5.1,3.64-10.04,7.23h-0.01c-7.08,5.12-16.12,11.78-21.55,16.15
	c0,0-0.02,0.02-0.07,0.06c-0.56,0.45-1.09,0.88-1.57,1.28c-0.16,0.12-0.33,0.28-0.51,0.43c-0.2,0.17-0.38,0.33-0.55,0.48
	c0,0-0.04,0.02-0.1,0.09c-0.46,0.38-2.29,1.93-2.29,2.59V348.97c0-10.13,8.22-18.34,18.34-18.34c9.09,0,16.62,6.6,18.09,15.26
	C312.6,346.89,312.69,347.92,312.69,348.97z"/>
<linearGradient id="SVGID_4_" gradientUnits="userSpaceOnUse" x1="488.3938" y1="387.0712" x2="488.3938" y2="666.0837">
	<stop  offset="0" style="stop-color:#27AFFA"/>
	<stop  offset="1" style="stop-color:#24A3FC"/>
</linearGradient>
<path class="st4" d="M559.48,625.32l-13.74,7.92l-9.17,5.29l-36.69,21.18l-36.69-21.18l-9.2-5.31l-21.3-12.3
	c-9.52-5.5-15.39-15.66-15.39-26.65V380.25c0,0,16.78,8.13,20.9,11.4c4.11,3.28,15.79,8.41,15.79,8.41v186.19
	c0,2.86,1.53,5.51,4.01,6.94l41.88,24.17l28.49-16.45l17.36,13.62L559.48,625.32z"/>
<linearGradient id="SVGID_5_" gradientUnits="userSpaceOnUse" x1="271.5264" y1="635.1818" x2="685.3918" y2="723.7872">
	<stop  offset="0" style="stop-color:#27F0EC"/>
	<stop  offset="0.5438" style="stop-color:#27F0EC"/>
	<stop  offset="1" style="stop-color:#1DA1F7"/>
</linearGradient>
<path class="st5" d="M724,631.58v32.06c0,12-6.4,23.1-16.8,29.1l-19.89,11.48l-18.49,10.68l-18.2,10.5l-18.49,10.68l-18.2,10.5
	l-10.31,5.96l-21.22,12.25l-15.47,8.93l-21.22,12.25l-9.16,5.29h-0.01l-4.86,2.81c-19.69,11.37-43.94,11.37-63.63,0l-4.87-2.81
	l-9.21-5.32l-21.18-12.23l-15.51-8.95l-21.18-12.23l-10.08-5.82l-18.43-10.64l-18.26-10.54l-18.43-10.64l-18.26-10.54l-13.9-8.02
	c-14.1-8.14-22.79-23.19-22.79-39.47v-51.29c0.89-1.27,2.03-2.61,3.35-3.98c0.01-0.01,0.01-0.01,0.02-0.02
	c3.09-2.82,8.35-7.41,14.91-12.32c0.09-0.07,0.17-0.13,0.27-0.2c3.62-2.69,7.62-5.48,11.86-8.12c1.88-1.17,3.8-2.31,5.77-3.39
	c0.1-0.07,0.21-0.13,0.32-0.18c0.12-0.07,0.18-0.11,0.18-0.11v68.57c0,10,5.34,19.25,14,24.25l22.69,13.1l18.26,10.54l18.43,10.64
	l18.26,10.54l13,7.51l15.51,8.95L454,743.58l15.51,8.95l11.53,6.66c11.67,6.74,26.05,6.74,37.71,0l11.52-6.65l15.47-8.93
	l21.22-12.25l15.47-8.93l13.04-7.53l18.49-10.68l18.2-10.5l18.49-10.68l27.03-15.6c5.98-3.45,9.66-9.83,9.66-16.73v-46.47
	c6.68,3.63,12.97,7.88,18.4,11.92C716.6,624.27,724,631.58,724,631.58z"/>
<linearGradient id="SVGID_6_" gradientUnits="userSpaceOnUse" x1="521.2953" y1="776.0862" x2="583.7303" y2="730.8488">
	<stop  offset="0" style="stop-color:#27F0EC"/>
	<stop  offset="0.8399" style="stop-color:#1DA1F7"/>
</linearGradient>
<path class="st6" d="M724,631.58v32.06c0,12-6.41,23.09-16.8,29.09l-19.88,11.48l-18.49,10.68l-18.2,10.5l-18.49,10.68l-18.2,10.5
	l-10.31,5.96l-21.22,12.25l-15.47,8.93l-2.45,1.42l-36.69-21.18l2.45-1.42l15.47-8.93l21.22-12.25l15.47-8.93l13.04-7.53
	l18.49-10.68l18.2-10.5l18.49-10.68l27.02-15.6c5.98-3.45,9.66-9.83,9.66-16.73v-46.47c6.68,3.63,12.97,7.88,18.4,11.92
	C716.6,624.27,724,631.58,724,631.58z"/>
<radialGradient id="SVGID_7_" cx="432.0051" cy="325.1035" r="22.5787" gradientUnits="userSpaceOnUse">
	<stop  offset="0" style="stop-color:#EBEE79"/>
	<stop  offset="1" style="stop-color:#F4BB4A"/>
</radialGradient>
<path class="st7" d="M467.31,326.48c0,0-9.26,3.01-12.68,18.32l-0.64,3.47c-0.35,2.38-0.56,5.03-0.6,7.94
	c-0.05,3.33,0.12,7.01,0.6,11.09c0,0-5.16-1.58-11.62-4.73c-2.96-1.44-6.19-3.22-9.31-5.32c-8.24-5.53-15.76-13.37-15.76-23.45
	c0-3.94,0.66-7.64,1.91-10.9c3.39-8.91,11.18-14.49,21.88-12.64c0,0,0,0,0.01,0c3.93,0.68,8.24,2.37,12.89,5.28
	C458.19,318.14,462.64,321.74,467.31,326.48z"/>
<linearGradient id="SVGID_8_" gradientUnits="userSpaceOnUse" x1="513.1437" y1="332.3681" x2="521.7426" y2="352.1828">
	<stop  offset="0.5326" style="stop-color:#F7C552"/>
	<stop  offset="1" style="stop-color:#FAB339"/>
</linearGradient>
<path class="st8" d="M582.42,601.95l-23.81-18.5l-12.88-10V344.82c0,0,0,0,0-0.01c-0.01-0.5-0.43-13.78-15.47-18.33
	c0,0,6.32-7.26,15.47-11.84c4.43-2.2,9.5-3.78,14.85-3.62c5.76,0.18,11.82,2.38,17.69,8.01c2.68,2.57,4.14,6.17,4.14,9.89
	L582.42,601.95z"/>
<linearGradient id="SVGID_9_" gradientUnits="userSpaceOnUse" x1="539.3782" y1="485.2551" x2="543.2629" y2="494.2069">
	<stop  offset="0.5326" style="stop-color:#F7C552"/>
	<stop  offset="1" style="stop-color:#FAB339"/>
</linearGradient>
<polygon class="st9" points="582.42,510.88 582.42,601.95 558.61,583.45 545.73,573.44 545.73,480.85 "/>
<polygon class="st10" points="582.42,510.88 582.42,601.95 558.61,583.45 545.73,573.44 545.73,480.85 "/>
<linearGradient id="SVGID_10_" gradientUnits="userSpaceOnUse" x1="545.732" y1="565.1293" x2="582.4172" y2="565.1293">
	<stop  offset="0" style="stop-color:#E97575"/>
	<stop  offset="1" style="stop-color:#ED6C65"/>
</linearGradient>
<polygon class="st11" points="582.42,558.34 582.42,601.95 558.61,583.45 545.73,573.44 545.73,528.31 "/>
<linearGradient id="SVGID_11_" gradientUnits="userSpaceOnUse" x1="662.6533" y1="348.1564" x2="554.1401" y2="706.5023">
	<stop  offset="0" style="stop-color:#FAB143"/>
	<stop  offset="0.4823" style="stop-color:#FBB536"/>
	<stop  offset="0.784" style="stop-color:#FCD46B"/>
	<stop  offset="1" style="stop-color:#FDBA41"/>
</linearGradient>
<path class="st12" d="M684.24,301.4l-33.62,20.25v311.4c0,9.23-4.93,17.77-12.91,22.38l-23.77,13.72l-12.18,7.03l-19.35,11.16
	l-17.34,10.02l-19.35,11.16c0,0-9.16,5.29-9.17,5.29c-0.4,0.23-0.79,0.46-1.19,0.68c-36.76,20.51-59.14,0.26-59.14,0.26
	c3.07-4.54,7.25-8.12,11.25-11.8c3.88-3.58,7.96-6.95,12.23-10.06c4.11-3,8.74-5.22,13.15-7.75c3.95-2.27,7.89-4.55,11.84-6.84
	c1.24-0.71,2.46-1.42,3.69-2.13l17.34-10.02L565.08,655l17.34-10.02l25.07-14.47c4-2.31,6.46-6.57,6.46-11.19V306.79
	c0-2.95,0.78-5.83,2.31-8.35c3.35-5.49,10.87-14.05,25.88-16.04c4.95-0.66,9.98,0.45,14.31,2.95L684.24,301.4z"/>
<linearGradient id="SVGID_12_" gradientUnits="userSpaceOnUse" x1="507.6955" y1="692.2829" x2="507.6955" y2="724.0461">
	<stop  offset="0" style="stop-color:#ED6C65"/>
	<stop  offset="1" style="stop-color:#E97575"/>
</linearGradient>
<path class="st13" d="M539.15,712.32c-0.51,0.29-0.99,0.57-1.38,0.81c-0.73,0.42-1.21,0.68-1.21,0.68c-0.4,0.23-0.79,0.46-1.19,0.68
	c-36.76,20.51-59.14,0.26-59.14,0.26c3.07-4.54,7.25-8.12,11.25-11.8c3.67-3.4,7.53-6.59,11.57-9.56c0.22-0.17,0.44-0.34,0.66-0.5
	c0.13-0.1,0.28-0.21,0.43-0.29C507.38,696.62,530.87,709.51,539.15,712.32z"/>
<radialGradient id="SVGID_13_" cx="649.0927" cy="321.1096" r="37.0729" gradientUnits="userSpaceOnUse">
	<stop  offset="1.118836e-07" style="stop-color:#55EBFB"/>
	<stop  offset="1" style="stop-color:#4AECF5"/>
</radialGradient>
<path class="st14" d="M684.24,301.4l-33.62,20.25v38.36c-0.17-0.07-0.28-0.16-0.28-0.16c-21.45-11.4-33.85-27.05-36.4-30.5v-22.56
	c0-2.95,0.78-5.83,2.31-8.35c3.35-5.49,10.87-14.05,25.88-16.04c4.95-0.66,9.98,0.45,14.31,2.95L684.24,301.4z"/>
<linearGradient id="SVGID_14_" gradientUnits="userSpaceOnUse" x1="336.136" y1="284.5039" x2="355.159" y2="379.6186">
	<stop  offset="0.2197" style="stop-color:#4AF1FD"/>
	<stop  offset="1" style="stop-color:#21E3ED"/>
</linearGradient>
<path class="st15" d="M471.37,676.18L454,692.21l-10.87,10.02l-8.44-4.87l-17.38-10.03L398,676.18l-11.95-6.9l-23.17-13.38
	c-8.36-4.83-13.51-13.75-13.51-23.4V321.65l-33.44-20.14l26.04-15.01c6.65-3.83,14.58-4.96,21.98-2.9c0.63,0.18,1.25,0.37,1.85,0.57
	c12.17,4.06,20.26,15.61,20.26,28.44V619.6c0,4.53,2.42,8.72,6.34,10.98l24.91,14.39L434.69,655L454,666.15L471.37,676.18z"/>
<path class="st16" d="M471.37,676.18l-17.38,16.03l-10.87,10.02l-8.44-4.87l-17.38-10.03L398,676.18l-11.95-6.9l-23.17-13.38
	c-8.36-4.83-13.51-13.74-13.51-23.41V451.25l36.69,21.18v147.17c0,4.54,2.42,8.72,6.35,10.98l24.91,14.39L434.69,655l19.31,11.15
	L471.37,676.18z"/>
<path class="st17" d="M471.37,676.18l-17.38,16.03l-10.87,10.02l-8.44-4.87l-17.38-10.03L398,676.18l-11.95-6.9l-23.17-13.38
	c-8.36-4.83-13.51-13.74-13.51-23.41v-84.31l36.69,21.17v50.25c0,4.54,2.42,8.72,6.35,10.98l24.91,14.39L434.69,655l19.31,11.15
	L471.37,676.18z"/>
<linearGradient id="SVGID_15_" gradientUnits="userSpaceOnUse" x1="705.6559" y1="330.9919" x2="705.6559" y2="575.5903">
	<stop  offset="1.118836e-07" style="stop-color:#26F5DF"/>
	<stop  offset="1" style="stop-color:#39F4F2"/>
</linearGradient>
<path class="st18" d="M724,348.7v244.89c-0.4-1.42-12.08-10.2-22.15-17.56c-7.74-5.65-14.54-10.48-14.54-10.48V348.7
	c0-1.03,0.09-2.04,0.24-3.02c1.44-8.69,9-15.32,18.1-15.32C715.79,330.36,724,338.57,724,348.7z"/>
</svg>
